<?xml version="1.0" encoding="utf-8"?>
<!-- Generator: Adobe Illustrator 16.0.0, SVG Export Plug-In . SVG Version: 6.00 Build 0)  -->
<!DOCTYPE svg PUBLIC "-//W3C//DTD SVG 1.1//EN" "http://www.w3.org/Graphics/SVG/1.1/DTD/svg11.dtd" [
	<!ENTITY ns_extend "http://ns.adobe.com/Extensibility/1.0/">
	<!ENTITY ns_ai "http://ns.adobe.com/AdobeIllustrator/10.0/">
	<!ENTITY ns_graphs "http://ns.adobe.com/Graphs/1.0/">
	<!ENTITY ns_vars "http://ns.adobe.com/Variables/1.0/">
	<!ENTITY ns_imrep "http://ns.adobe.com/ImageReplacement/1.0/">
	<!ENTITY ns_sfw "http://ns.adobe.com/SaveForWeb/1.0/">
	<!ENTITY ns_custom "http://ns.adobe.com/GenericCustomNamespace/1.0/">
	<!ENTITY ns_adobe_xpath "http://ns.adobe.com/XPath/1.0/">
]>
<svg version="1.1"
	 id="svg58" xmlns:x="&ns_extend;" xmlns:i="&ns_ai;" xmlns:graph="&ns_graphs;" xmlns:dc="http://purl.org/dc/elements/1.1/" xmlns:cc="http://creativecommons.org/ns#" xmlns:rdf="http://www.w3.org/1999/02/22-rdf-syntax-ns#" xmlns:svg="http://www.w3.org/2000/svg"
	 xmlns="http://www.w3.org/2000/svg" xmlns:xlink="http://www.w3.org/1999/xlink" x="0px" y="0px" width="242.179px"
	 height="79.953px" viewBox="0 0 242.179 79.953" enable-background="new 0 0 242.179 79.953" xml:space="preserve">
<metadata>
	<sfw  xmlns="&ns_sfw;">
		<slices></slices>
		<sliceSourceBounds  width="241.824" height="78.954" x="3.346" y="357.022" bottomLeftOrigin="true"></sliceSourceBounds>
	</sfw>
</metadata>
<path id="path2" fill="#1B1918" d="M31.007,50.536h59.062l1.348,1.321l-3.074,8.762l-2.734,1.439H11.225L5.161,79.343h89.011
	c1.393,0,2.929-0.34,4.606-1.02c1.678-0.68,3.28-1.541,4.806-2.581c1.526-1.041,2.901-2.181,4.125-3.421
	c1.225-1.24,2.033-2.421,2.426-3.541l7.538-21.486c0.927-2.641,1.258-4.84,0.993-6.602s-0.943-3.201-2.036-4.32
	c-1.093-1.121-2.507-1.921-4.242-2.4c-1.735-0.48-3.578-0.721-5.528-0.721H47.797l-1.487-1.32l3.243-9.242l2.566-0.96h74.524
	l6.064-17.284H43.835c-1.3,0-2.789,0.34-4.467,1.021c-1.678,0.68-3.333,1.561-4.966,2.641c-1.632,1.08-3.061,2.24-4.285,3.48
	c-1.225,1.24-2.034,2.42-2.427,3.541l-7.496,21.365c-0.926,2.641-1.257,4.842-0.993,6.602c0.265,1.762,0.943,3.201,2.036,4.322
	c1.093,1.119,2.507,1.92,4.242,2.399S29.058,50.536,31.007,50.536L31.007,50.536z"/>
<path id="path4" fill="#1B1918" d="M133.04,35.632h74.742l2.742-1.443l3.885-11.075l-1.729-1.444h-74.742l6.082-17.334h89.271
	c1.396,0,2.697,0.34,3.902,1.022c1.203,0.683,2.205,1.545,3.004,2.588c0.797,1.043,1.373,2.187,1.729,3.431s0.336,2.428-0.059,3.551
	l-8.361,23.836c-0.9,2.568-2.117,4.775-3.65,6.621c-1.531,1.847-3.24,3.332-5.125,4.455s-3.873,1.945-5.965,2.467
	s-4.115,0.783-6.072,0.783h-61.05l-9.249,26.364h-24.728L133.04,35.632z"/>
<path id="path8" fill="#E30016" d="M26.203,46.69h59.062l1.348,1.319l-3.074,8.763l-2.734,1.44H6.419L0.355,75.498h89.011
	c1.394,0,2.929-0.341,4.607-1.021c1.678-0.68,3.28-1.541,4.806-2.58c1.526-1.041,2.901-2.182,4.125-3.422
	c1.225-1.24,2.033-2.42,2.426-3.541l7.538-21.485c0.926-2.642,1.257-4.841,0.993-6.603c-0.265-1.76-0.943-3.2-2.036-4.32
	c-1.093-1.12-2.507-1.92-4.243-2.4c-1.735-0.479-3.578-0.72-5.528-0.72H42.993l-1.487-1.319l3.243-9.244l2.565-0.959h74.524
	l6.064-17.285H39.029c-1.3,0-2.79,0.341-4.467,1.021c-1.678,0.68-3.334,1.561-4.966,2.641c-1.633,1.08-3.061,2.24-4.286,3.48
	c-1.225,1.241-2.034,2.421-2.426,3.541l-7.496,21.366c-0.927,2.642-1.258,4.841-0.993,6.603c0.265,1.76,0.943,3.2,2.036,4.32
	c1.092,1.12,2.506,1.92,4.242,2.4C22.41,46.45,24.251,46.69,26.203,46.69L26.203,46.69z"/>
<path id="path10" fill="#E30016" d="M127.929,31.798h74.742l2.742-1.445l3.887-11.074l-1.73-1.445h-74.741L138.91,0.5h89.271
	c1.396,0,2.697,0.34,3.9,1.022c1.205,0.683,2.205,1.545,3.006,2.588c0.797,1.043,1.375,2.187,1.729,3.431
	c0.355,1.244,0.336,2.428-0.059,3.551l-8.361,23.836c-0.902,2.568-2.119,4.775-3.65,6.621s-3.24,3.332-5.125,4.455
	s-3.873,1.945-5.965,2.467c-2.094,0.521-4.117,0.783-6.072,0.783h-61.051l-9.249,26.364h-24.728L127.929,31.798z"/>
</svg>
