<?xml version="1.0" encoding="utf-8"?>
<!-- Generator: Adobe Illustrator 16.0.3, SVG Export Plug-In . SVG Version: 6.00 Build 0)  -->
<!DOCTYPE svg PUBLIC "-//W3C//DTD SVG 1.1//EN" "http://www.w3.org/Graphics/SVG/1.1/DTD/svg11.dtd">
<svg version="1.1"
	 id="svg58" xmlns:dc="http://purl.org/dc/elements/1.1/" xmlns:cc="http://creativecommons.org/ns#" xmlns:rdf="http://www.w3.org/1999/02/22-rdf-syntax-ns#" xmlns:svg="http://www.w3.org/2000/svg"
	 xmlns="http://www.w3.org/2000/svg" xmlns:xlink="http://www.w3.org/1999/xlink" x="0px" y="0px" width="605.019px"
	 height="79.952px" viewBox="116.461 198.323 605.019 79.952" enable-background="new 116.461 198.323 605.019 79.952"
	 xml:space="preserve">
<path id="path2" fill="#1B1918" d="M147.114,248.36h59.062l1.348,1.321l-3.074,8.762l-2.734,1.44h-74.385l-6.064,17.285h89.011
	c1.393,0,2.929-0.34,4.606-1.02c1.678-0.68,3.28-1.541,4.806-2.581c1.526-1.041,2.901-2.181,4.125-3.421
	c1.225-1.241,2.033-2.421,2.426-3.541l7.538-21.486c0.927-2.641,1.258-4.841,0.993-6.602c-0.265-1.761-0.943-3.201-2.036-4.321
	c-1.093-1.12-2.507-1.92-4.242-2.4s-3.578-0.72-5.528-0.72h-59.062l-1.487-1.32l3.243-9.243l2.566-0.96h74.524l6.064-17.284h-88.872
	c-1.3,0-2.789,0.34-4.467,1.021c-1.678,0.68-3.333,1.561-4.966,2.641c-1.632,1.08-3.061,2.24-4.285,3.48
	c-1.225,1.241-2.034,2.421-2.427,3.541l-7.496,21.366c-0.926,2.641-1.257,4.841-0.993,6.602c0.265,1.761,0.943,3.201,2.036,4.321
	c1.093,1.12,2.507,1.92,4.242,2.4C143.321,248.121,145.164,248.36,147.114,248.36L147.114,248.36z"/>
<path id="path4" fill="#1B1918" d="M249.146,233.457h74.742l2.742-1.444l3.886-11.075l-1.729-1.444h-74.742l6.082-17.335h89.271
	c1.397,0,2.698,0.341,3.902,1.023c1.204,0.683,2.205,1.545,3.004,2.588c0.798,1.043,1.374,2.187,1.729,3.431
	s0.336,2.428-0.058,3.551l-8.362,23.836c-0.901,2.568-2.118,4.775-3.65,6.621c-1.532,1.846-3.24,3.331-5.125,4.454
	c-1.885,1.124-3.873,1.946-5.965,2.468c-2.093,0.521-4.116,0.783-6.073,0.783h-61.05l-9.249,26.364h-24.728L249.146,233.457z"/>
<path id="path6" fill="#1B1918" d="M525.835,203.407h22.48l-3.957,11.2h18.381l3.957-11.2h22.48l-0.67,1.898
	c-1.238-0.194-2.484-0.423-3.719-0.586c-2.281-0.3-4.676,0.335-6.498,0.042c-1.23-0.198,0.4,0.929-0.604,0.911
	c-1.271-0.023-3.73-0.793-3.102-0.5l2.646,1.236c1.758,0.82,5.428-1.236,4.715-0.964l-0.926,0.352
	c0.764,1.1,2.656,0.383,4.449,0.478c0.879,0.046,1.738,0.225,2.543,0.432l-2.793,7.901h18.381l2.303-6.512
	c2.424-0.491,4.973-0.869,7.863-0.633c-1.287,0.014-2.578,0.049-3.863,0.015c0.166,0.613,5.332,0.791,5.98,0.822
	c4.203,0.21,8.434-0.129,12.617-0.54l-2.418,6.848h8.32c0.189,0.984,0.549,0.512,0.213,0.774s-1.068,0.287-2.461,0.319
	c-0.752,0.017-2,1.01-3.182,1.071c-1.801,0.094-3.633-0.622-4.49,0.478l0.896,0.352c0.381,0.15-0.516-0.411-1.701-0.804l0.553-1.564
	h-18.381l-0.637,1.799c-3.023-0.105-5.801-0.204-7.355-0.204c2.525-0.213,0.932,0.649,4.025,0.04c0.453-0.089,0.062-0.04,0.453-0.04
	c-2.715,0-1.758-1.275-5.789-0.537c0.123,0.329,1.018,0.637,1.34,0.509c-3.229,0.236-6.568,1.183-9.857,1.611
	c0.85-0.374,10.848-1.072,10.805,0.04c-0.049,1.22-0.98,1.604-1.955,1.333c-0.029-0.406-0.014-0.321-0.273-0.687
	c0.527-0.138,4.562-0.084,7.883-0.014l-0.006,0.02c-0.805-0.053-1.877-0.043-3.428,0.068c0.197,0.339,1.586,0.713,2.082,0.608
	c-4.986,0.004-10.133,0.712-15.209,0.904c1.119-0.268,12.602-0.291,15.852,0.406l-0.25,0.713c-0.801,0.035-1.578,0.096-2.326,0.188
	c0.41,0.386,0.383,0.299,0.436,0.708c0.543,0.123,1.074,0.161,1.535,0.103l-1.061,3.003h18.381l1.137-3.216
	c2.773,0.078,5.625,0.045,8.514-0.221c4.357,0.418,10.863,0.949,13.508,1.521l-0.057,0.159c-0.568-0.005-1.041-0.001-1.367,0.008
	c1.209,0.013,0.758,0.068,1.365,0l-0.619,1.75h5.527l1.742,0.268c4.096,0.63,7.996,0.644,11.822,0.43l-1.51,4.274
	c-6.102,0.126-19.332,1.929-6.365-0.314c-0.822-0.618-11.969-0.25-15.959-0.126l0.059-0.167c5.771-1.031,4.166-1.065,0.275-0.779
	l1.045-2.96h-18.381l-2.092,5.917l0,0l-1.822-0.052c0.221-0.096,0.418-0.198,0.588-0.307c-0.369-0.206-0.809-0.061-1.146,0.29
	l-0.832-0.024c-1.812-0.178-3.654-0.513-5.393-0.742c-1.178-0.154-2.385-0.06-3.527,0.027c-1.068-0.299-2.068-0.572-5.742-0.164
	c0.197,0.331,1.59,0.649,2.086,0.526c-0.797,0.032-1.598,0.081-2.402,0.145c-0.564-0.131-0.895-0.21-0.615-0.08l0.234,0.11
	c-1.311,0.109-2.631,0.25-3.953,0.403l2.137-6.048h-18.381l-3.959,11.2h-22.48l3.957-11.2h-18.381l-3.957,11.2h-22.48l4.18-11.826
	h21.523l3.736-10.573h-20.852L525.835,203.407z M604.908,231.916l0.008,0.017l-0.338-0.003L604.908,231.916z M603.884,233.032
	l0.367,0.171c0.457,0.213,1.043,0.232,1.648,0.148c0.146,0.063,0.227,0.135,0.225,0.215c-0.051,1.219-1.484,1.593-3,1.31
	c-0.053-0.407-0.027-0.321-0.438-0.69c4.225-0.685,9.285-0.407,14.811-0.261c0.029,0.257,0.105,0.523,0.24,0.787
	c0.584,0.049,1.191,0.074,1.811,0.084l-1.002,2.837h-22.48l1.658-4.695C600.001,232.899,602.277,232.917,603.884,233.032
	L603.884,233.032z M605.501,219.824l-0.014,0.04c-0.408-0.022-0.785-0.042-1.123-0.058
	C604.826,219.803,605.197,219.81,605.501,219.824z M623.445,221.061l1.008-2.851c1.535,0.046,3.268,0.339,4.982,0.116
	c4.006-0.521,8.939-3.708,12.305-2.211c0.703,0.312,1.348,0.313,1.842,0.577c-0.512,0.542-0.613,0.197-1.471,0.419
	c1.988-0.134,3.668-0.11,5.209,0.004l-1.76,4.982c-4.092-0.056-8.102-0.083-11.221-0.079c0.258-0.039,0.514-0.079,0.771-0.122
	c0.477-0.079,1.332-0.394,1.643-0.422l-0.963,0.085C634.222,221.699,629.166,221.43,623.445,221.061L623.445,221.061z
	 M655.105,237.732l-18.178-0.099l1.709-4.833c1.555-0.072,3.094-0.071,4.572,0.05l0.785,1.26c1.66-0.123,3.641-0.267,5.262-0.467
	l2.02,1.234l-3.217,0.856l4.998,0.567L655.105,237.732z M663.583,223.107l0.016-0.045c5.785,0.084,17.143,0.196,18.525-0.83
	c-1.742-0.361-4.861-0.013-5.734-0.488c0.213-0.113,5.68-0.089,10.166-0.03l1.51-4.271c-2.266-0.243-23.393-1.238-19.998,0.21
	c0.635,0.271,2.129,0.627,4.764,1.09c-0.479,0.339-4.045,0.381-7.822,0.331l-1.262,3.572c0.465,0.038,0.838,0.075,1.1,0.116
	C664.886,223.002,664.306,223.089,663.583,223.107z M685.705,224.127l-0.109,0.309l-4.471,0.025c0.902,0.01,2.627,0.067,4.426,0.1
	l-0.66,1.871h-20.387c6.545-0.438,12.908-1.43,19.703-0.998c-2.322-0.301-5.264-0.175-7.193-0.864
	C677.916,224.294,682.046,224.139,685.705,224.127L685.705,224.127z M645.976,213.927l0.193-0.548
	c0.674-0.126,1.309-0.272,1.791-0.372c-0.539,0.053-1.107,0.083-1.693,0.097l2.207-6.245l15.121,0.087
	c-2.178,0.023-9.137,0.323-10.408-0.115c1.705-0.374,12.986-0.256,14.51,0.223c-1.988,0.689-4.92,0.564-7.268,0.865
	c3.471-0.22,6.799-0.072,10.086,0.184l-2.297,6.504h20.85l-0.576,1.635c-8.895,0.304-18.223-1.964-27.66-1.496
	c-0.648,0.032-5.76-1.479-5.979-0.867c0.922-0.024,1.805,0.849,2.703,1.354h-5.242C650.113,214.853,648.064,214.296,645.976,213.927
	L645.976,213.927z M608.474,204.42l0.357-1.013h22.48l-0.965,2.731c-2.201-0.001-4.479-0.01-6.891,0.015
	c2.527-0.026,3.859,0.073,6.434-0.373c-0.914-0.688-14.625-0.153-17.014-0.096c1.99-0.343,4.02-0.545,5.678-1.278
	C614.39,204.438,611.351,204.461,608.474,204.42L608.474,204.42z M649.134,204.987l0.559-1.58h22.482l-0.766,2.162
	c-4.184-0.07-7.916-0.291-8.627-0.853c1.773-0.362,4.863-0.014,5.775-0.488c-0.34-0.191-15.545,0.007-16.006,0.106
	C651.384,204.585,650.248,204.801,649.134,204.987z M580.906,225.806l3.736-10.573h-18.381l-3.736,10.573H580.906z M366.594,209.419
	l-7.7,21.949c-0.385,1.097-0.469,2.03-0.249,2.798c0.218,0.768,0.655,1.399,1.31,1.893c0.654,0.494,1.449,0.86,2.385,1.098
	s1.955,0.357,3.059,0.357h29.038c1.019,0,2.083-0.128,3.19-0.384c1.109-0.256,2.171-0.649,3.185-1.18s1.921-1.18,2.722-1.948
	c0.799-0.769,1.373-1.646,1.719-2.634l7.7-21.949c0.347-0.988,0.39-1.866,0.129-2.634s-0.713-1.417-1.354-1.948
	c-0.642-0.531-1.427-0.924-2.356-1.18c-0.929-0.256-1.903-0.384-2.922-0.384H377.41c-1.104,0-2.207,0.119-3.31,0.356
	c-1.102,0.237-2.153,0.604-3.154,1.097c-1.001,0.494-1.881,1.125-2.639,1.894S366.979,208.321,366.594,209.419L366.594,209.419z
	 M394.597,229.612h-23.88l6.468-18.437h23.88L394.597,229.612z M416.216,217.54h32.094c0.701-0.184,1.117-0.402,1.25-0.659
	l1.771-5.048c-0.035-0.146-0.115-0.274-0.248-0.384c-0.131-0.11-0.27-0.201-0.414-0.274h-32.22l2.771-7.901h39.226
	c0.594,0,1.166,0.155,1.715,0.466s1.016,0.704,1.4,1.18c0.387,0.476,0.658,0.997,0.82,1.564s0.154,1.106-0.025,1.619l-3.812,10.864
	c-0.41,1.171-1.07,2.177-1.982,3.018c-0.91,0.842-1.957,1.527-3.141,2.058s-2.443,0.915-3.779,1.152s-2.641,0.357-3.914,0.357
	l10.385,11.962h-15.027l-11.404-11.962h-7.006l-4.196,11.962h-11.271L416.216,217.54z M474.99,237.513h11.207l9.24-26.338h15.219
	l2.771-7.901h-41.264l-2.771,7.901h14.836L474.99,237.513z M350.778,258.302h32.094c0.715-0.183,1.149-0.402,1.302-0.659
	l2.164-5.048c-0.022-0.146-0.095-0.275-0.217-0.384c-0.123-0.11-0.254-0.201-0.393-0.274h-32.221l3.387-7.901h39.227
	c0.594,0,1.154,0.156,1.679,0.467s0.961,0.704,1.309,1.179c0.349,0.476,0.58,0.997,0.698,1.564s0.067,1.106-0.152,1.619
	l-4.658,10.864c-0.502,1.17-1.241,2.177-2.218,3.018c-0.976,0.841-2.077,1.527-3.302,2.057c-1.225,0.531-2.515,0.915-3.869,1.153
	s-2.668,0.357-3.941,0.357l9.453,11.961h-15.028l-10.472-11.961h-7.005l-5.129,11.961h-11.271L350.778,258.302z M405.203,250.181
	l-9.41,21.948c-0.471,1.097-0.627,2.03-0.468,2.798c0.158,0.768,0.546,1.399,1.162,1.893c0.616,0.494,1.382,0.859,2.299,1.097
	c0.918,0.238,1.928,0.357,3.031,0.357h29.038c1.02,0,2.092-0.128,3.221-0.384c1.129-0.256,2.221-0.649,3.277-1.18
	c1.055-0.53,2.012-1.18,2.873-1.948c0.859-0.768,1.5-1.646,1.924-2.634l9.41-21.948c0.424-0.988,0.535-1.866,0.334-2.634
	c-0.201-0.768-0.602-1.417-1.203-1.948c-0.6-0.531-1.354-0.924-2.264-1.18c-0.908-0.256-1.873-0.384-2.891-0.384h-29.039
	c-1.104,0-2.216,0.119-3.337,0.356c-1.12,0.238-2.201,0.604-3.24,1.098s-1.969,1.125-2.786,1.893
	C406.317,248.151,405.674,249.083,405.203,250.181z M431.632,270.374h-23.879l7.904-18.437h23.879L431.632,270.374z
	 M460.466,278.275h11.207l11.293-26.338h15.219l3.389-7.901H460.31l-3.389,7.901h14.838L460.466,278.275z M505.052,250.181
	l-9.412,21.948c-0.469,1.097-0.627,2.03-0.467,2.798c0.158,0.768,0.547,1.399,1.162,1.893c0.617,0.494,1.383,0.859,2.299,1.097
	c0.918,0.238,1.928,0.357,3.031,0.357h29.039c1.018,0,2.092-0.128,3.221-0.384c1.129-0.256,2.221-0.649,3.275-1.18
	c1.055-0.53,2.012-1.18,2.873-1.948c0.859-0.768,1.502-1.646,1.926-2.634l9.41-21.948c0.424-0.988,0.535-1.866,0.334-2.634
	c-0.201-0.768-0.604-1.417-1.203-1.948c-0.602-0.531-1.355-0.924-2.266-1.18c-0.908-0.256-1.873-0.384-2.891-0.384h-29.037
	c-1.105,0-2.217,0.119-3.338,0.356c-1.121,0.238-2.201,0.604-3.24,1.098s-1.969,1.125-2.785,1.893
	C506.166,248.151,505.523,249.083,505.052,250.181z M531.48,270.374h-23.879l7.904-18.437h23.881L531.48,270.374z M560.314,278.275
	h11.207l11.293-26.338h15.219l3.389-7.901h-41.264l-3.389,7.901h14.838L560.314,278.275z M607.535,244.035h11.271l-14.682,34.24
	h-11.27L607.535,244.035z M618.802,258.302h34.068l1.301-0.659l2.164-5.048l-0.736-0.659h-34.068l3.389-7.901h40.691
	c0.635,0,1.217,0.156,1.74,0.467c0.525,0.311,0.951,0.704,1.277,1.179c0.328,0.476,0.549,0.997,0.668,1.564
	c0.117,0.567,0.066,1.106-0.152,1.619l-4.658,10.864c-0.502,1.17-1.137,2.177-1.9,3.018s-1.596,1.518-2.494,2.03
	c-0.898,0.512-1.834,0.887-2.807,1.125c-0.971,0.237-1.904,0.357-2.795,0.357h-27.828l-5.152,12.017h-11.271L618.802,258.302z
	 M674.691,250.181l-9.41,21.948c-0.471,1.097-0.627,2.03-0.467,2.798c0.158,0.768,0.545,1.399,1.162,1.893
	c0.615,0.494,1.383,0.859,2.299,1.097c0.918,0.238,1.928,0.357,3.031,0.357h29.037c1.02,0,2.094-0.128,3.221-0.384
	c1.129-0.256,2.221-0.649,3.277-1.18c1.055-0.53,2.012-1.18,2.873-1.948c0.859-0.768,1.5-1.646,1.924-2.634l9.412-21.948
	c0.422-0.988,0.533-1.866,0.332-2.634c-0.201-0.768-0.602-1.417-1.201-1.948c-0.602-0.531-1.355-0.924-2.266-1.18
	c-0.908-0.256-1.873-0.384-2.891-0.384h-29.039c-1.104,0-2.215,0.119-3.336,0.356c-1.121,0.238-2.201,0.604-3.24,1.098
	s-1.969,1.125-2.785,1.893C675.806,248.151,675.162,249.083,674.691,250.181L674.691,250.181z M701.121,270.374h-23.879
	l7.904-18.437h23.881L701.121,270.374z"/>
<path id="path8" fill="#E30016" d="M142.309,244.514h59.062l1.348,1.32l-3.074,8.762l-2.734,1.44h-74.385l-6.064,17.285h89.011
	c1.394,0,2.929-0.34,4.607-1.02c1.678-0.68,3.28-1.541,4.806-2.581c1.526-1.041,2.901-2.181,4.125-3.421
	c1.225-1.241,2.033-2.421,2.426-3.541l7.538-21.486c0.926-2.641,1.257-4.841,0.993-6.602c-0.265-1.76-0.943-3.201-2.036-4.321
	c-1.093-1.12-2.507-1.92-4.243-2.4c-1.735-0.48-3.578-0.72-5.528-0.72h-59.062l-1.487-1.32l3.243-9.243l2.565-0.96h74.524
	l6.064-17.284h-88.872c-1.3,0-2.79,0.34-4.467,1.021c-1.678,0.68-3.334,1.561-4.966,2.641c-1.633,1.08-3.061,2.24-4.286,3.48
	c-1.225,1.241-2.034,2.421-2.426,3.541l-7.496,21.366c-0.927,2.641-1.258,4.841-0.993,6.602c0.265,1.761,0.943,3.201,2.036,4.321
	c1.092,1.12,2.506,1.92,4.242,2.401C138.516,244.274,140.358,244.514,142.309,244.514L142.309,244.514z"/>
<path id="path10" fill="#E30016" d="M244.035,229.622h74.742l2.742-1.444l3.886-11.075l-1.729-1.445h-74.742l6.082-17.335h89.271
	c1.396,0,2.697,0.341,3.901,1.023c1.204,0.683,2.205,1.545,3.004,2.588c0.798,1.043,1.375,2.187,1.73,3.431
	c0.354,1.244,0.336,2.428-0.059,3.551l-8.362,23.836c-0.901,2.568-2.118,4.775-3.65,6.621s-3.24,3.331-5.125,4.454
	c-1.884,1.124-3.873,1.946-5.965,2.468c-2.093,0.521-4.116,0.783-6.072,0.783h-61.051l-9.249,26.364h-24.728L244.035,229.622z"/>
<path id="path12" fill="#CACCCE" d="M521.296,200.528h22.482l-3.959,11.2h18.381l3.959-11.2h22.479l-0.67,1.898
	c-1.236-0.194-2.482-0.423-3.717-0.586c-2.283-0.3-4.678,0.335-6.5,0.042c-1.229-0.198,0.4,0.929-0.604,0.911
	c-1.271-0.023-3.729-0.793-3.1-0.5l2.646,1.236c1.756,0.82,5.426-1.236,4.713-0.964l-0.926,0.352c0.764,1.1,2.656,0.384,4.449,0.478
	c0.881,0.046,1.738,0.225,2.543,0.433l-2.791,7.9h18.379l2.303-6.512c2.424-0.491,4.973-0.869,7.865-0.633
	c-1.289,0.014-2.58,0.049-3.865,0.015c0.166,0.613,5.332,0.791,5.98,0.822c4.205,0.21,8.434-0.129,12.619-0.54l-2.42,6.848h8.322
	c0.188,0.984,0.547,0.512,0.211,0.774s-1.066,0.287-2.459,0.319c-0.754,0.017-2.002,1.01-3.184,1.071
	c-1.799,0.094-3.633-0.622-4.488,0.478l0.895,0.352c0.381,0.15-0.514-0.411-1.699-0.804l0.551-1.564h-18.381l-0.635,1.799
	c-3.025-0.105-5.803-0.204-7.357-0.204c2.525-0.213,0.932,0.649,4.025,0.04c0.453-0.089,0.062-0.04,0.455-0.04
	c-2.717,0-1.76-1.275-5.791-0.537c0.123,0.329,1.018,0.637,1.342,0.509c-3.23,0.237-6.57,1.183-9.859,1.611
	c0.852-0.374,10.848-1.072,10.805,0.04c-0.049,1.22-0.98,1.604-1.955,1.333c-0.029-0.406-0.012-0.321-0.273-0.687
	c0.527-0.138,4.562-0.084,7.883-0.014l-0.006,0.02c-0.803-0.053-1.877-0.043-3.428,0.068c0.197,0.339,1.588,0.713,2.084,0.608
	c-4.988,0.004-10.133,0.712-15.209,0.904c1.119-0.268,12.6-0.291,15.852,0.406l-0.252,0.712c-0.801,0.036-1.576,0.096-2.326,0.188
	c0.41,0.386,0.383,0.299,0.438,0.708c0.541,0.123,1.074,0.161,1.533,0.103l-1.061,3.003h18.381l1.137-3.216
	c2.773,0.078,5.625,0.045,8.516-0.221c4.355,0.418,10.863,0.949,13.506,1.521l-0.057,0.159c-0.568-0.004-1.041,0-1.365,0.008
	c1.207,0.013,0.758,0.068,1.363,0l-0.617,1.75h5.525l1.742,0.268c4.096,0.63,7.996,0.644,11.824,0.43l-1.512,4.274
	c-6.102,0.126-19.332,1.929-6.365-0.314c-0.822-0.618-11.969-0.25-15.959-0.126l0.059-0.166c5.771-1.031,4.168-1.065,0.275-0.779
	l1.045-2.96h-18.381l-2.092,5.917l0,0l-1.822-0.052c0.223-0.096,0.418-0.198,0.588-0.307c-0.369-0.206-0.809-0.061-1.146,0.29
	l-0.832-0.024c-1.812-0.178-3.652-0.514-5.391-0.742c-1.178-0.154-2.387-0.06-3.529,0.027c-1.066-0.299-2.066-0.572-5.742-0.164
	c0.197,0.331,1.59,0.649,2.088,0.526c-0.799,0.032-1.6,0.081-2.404,0.145c-0.564-0.131-0.895-0.21-0.615-0.08l0.236,0.11
	c-1.312,0.109-2.631,0.25-3.955,0.403l2.137-6.048h-18.381l-3.957,11.2h-22.482l3.959-11.2H534.97l-3.959,11.2h-22.48l4.18-11.826
	h21.523l3.736-10.573h-20.852L521.296,200.528z M597.609,229.037l0.01,0.017l-0.338-0.003L597.609,229.037z M596.585,230.153
	l0.367,0.171c0.457,0.213,1.043,0.232,1.648,0.148c0.146,0.063,0.227,0.135,0.225,0.215c-0.049,1.219-1.484,1.593-3,1.31
	c-0.053-0.407-0.025-0.321-0.438-0.69c4.225-0.685,9.285-0.407,14.811-0.261c0.029,0.257,0.105,0.523,0.242,0.787
	c0.582,0.049,1.189,0.074,1.809,0.084l-1.002,2.837h-22.48l1.658-4.695C592.703,230.021,594.978,230.038,596.585,230.153z
	 M598.203,216.945l-0.014,0.04c-0.408-0.022-0.785-0.042-1.123-0.058C597.527,216.924,597.898,216.931,598.203,216.945
	L598.203,216.945z M616.148,218.182l1.006-2.851c1.535,0.046,3.268,0.339,4.982,0.116c4.008-0.521,8.939-3.708,12.305-2.211
	c0.703,0.312,1.348,0.313,1.842,0.577c-0.512,0.542-0.613,0.197-1.469,0.419c1.988-0.134,3.666-0.11,5.207,0.004l-1.76,4.982
	c-4.092-0.056-8.102-0.083-11.219-0.079c0.256-0.039,0.512-0.078,0.77-0.122c0.477-0.079,1.332-0.394,1.643-0.422l-0.963,0.085
	C626.923,218.82,621.867,218.552,616.148,218.182L616.148,218.182z M647.806,234.853l-18.178-0.099l1.709-4.833
	c1.555-0.072,3.094-0.071,4.572,0.05l0.785,1.26c1.66-0.123,3.641-0.267,5.262-0.467l2.021,1.234l-3.219,0.856l4.998,0.567
	L647.806,234.853z M656.285,220.229l0.016-0.045c5.785,0.084,17.143,0.196,18.525-0.83c-1.742-0.361-4.861-0.013-5.732-0.488
	c0.211-0.113,5.68-0.089,10.166-0.03l1.51-4.271c-2.268-0.243-23.395-1.238-20,0.21c0.635,0.271,2.129,0.627,4.764,1.09
	c-0.479,0.339-4.045,0.381-7.822,0.331l-1.262,3.572c0.465,0.038,0.838,0.076,1.1,0.116
	C657.587,220.123,657.007,220.21,656.285,220.229L656.285,220.229z M678.406,221.248l-0.109,0.309l-4.471,0.025
	c0.902,0.01,2.627,0.067,4.428,0.1l-0.662,1.871h-20.387c6.545-0.438,12.908-1.43,19.705-0.998
	c-2.324-0.301-5.266-0.175-7.195-0.864C670.617,221.416,674.748,221.26,678.406,221.248z M638.679,211.048l0.193-0.548
	c0.672-0.126,1.307-0.272,1.789-0.372c-0.539,0.053-1.107,0.083-1.693,0.097l2.207-6.245l15.121,0.087
	c-2.178,0.023-9.135,0.323-10.408-0.115c1.705-0.374,12.986-0.256,14.512,0.223c-1.99,0.689-4.92,0.564-7.27,0.865
	c3.471-0.22,6.799-0.072,10.086,0.184l-2.297,6.504h20.85l-0.576,1.635c-8.895,0.305-18.223-1.964-27.66-1.496
	c-0.648,0.032-5.76-1.479-5.979-0.867c0.922-0.024,1.805,0.849,2.703,1.354h-5.24c-2.203-0.38-4.252-0.937-6.34-1.307H638.679z
	 M601.175,201.542l0.357-1.013h22.48l-0.963,2.731c-2.203-0.001-4.48-0.01-6.893,0.015c2.529-0.026,3.859,0.073,6.436-0.373
	c-0.914-0.688-14.627-0.154-17.016-0.097c1.99-0.343,4.02-0.545,5.678-1.278C607.091,201.559,604.052,201.582,601.175,201.542
	L601.175,201.542z M641.837,202.108l0.559-1.58h22.48l-0.766,2.163c-4.182-0.071-7.916-0.292-8.627-0.853
	c1.773-0.362,4.863-0.014,5.775-0.488c-0.34-0.191-15.545,0.007-16.006,0.106C644.087,201.707,642.951,201.922,641.837,202.108z
	 M573.607,222.927l3.736-10.573h-18.381l-3.736,10.573H573.607z M362.961,206.54l-7.7,21.949c-0.385,1.097-0.469,2.03-0.249,2.798
	c0.218,0.768,0.655,1.399,1.31,1.893c0.654,0.494,1.449,0.86,2.385,1.098s1.955,0.357,3.06,0.357h29.037
	c1.019,0,2.083-0.128,3.19-0.384c1.109-0.256,2.171-0.649,3.185-1.18c1.014-0.53,1.921-1.18,2.722-1.948
	c0.8-0.769,1.373-1.646,1.72-2.634l7.7-21.949c0.346-0.988,0.389-1.866,0.128-2.634s-0.713-1.417-1.354-1.948
	c-0.642-0.531-1.427-0.924-2.356-1.18c-0.929-0.256-1.903-0.384-2.922-0.384h-29.037c-1.104,0-2.207,0.119-3.31,0.356
	c-1.102,0.238-2.153,0.604-3.154,1.097c-1.001,0.494-1.881,1.125-2.639,1.894S363.346,205.442,362.961,206.54z M390.964,226.733
	h-23.88l6.469-18.437h23.879L390.964,226.733z M412.583,214.661h32.094c0.701-0.184,1.117-0.402,1.25-0.659l1.771-5.048
	c-0.035-0.146-0.115-0.274-0.248-0.384c-0.131-0.11-0.27-0.201-0.414-0.274h-32.22l2.771-7.901h39.226
	c0.594,0,1.166,0.155,1.715,0.466s1.016,0.704,1.4,1.18c0.387,0.476,0.658,0.997,0.82,1.564s0.154,1.106-0.025,1.619l-3.812,10.865
	c-0.41,1.17-1.07,2.176-1.982,3.018c-0.91,0.842-1.957,1.527-3.141,2.058c-1.184,0.531-2.443,0.915-3.779,1.152
	s-2.641,0.357-3.914,0.357l10.385,11.962h-15.027l-11.404-11.962h-7.005l-4.196,11.962h-11.271L412.583,214.661z M471.357,234.634
	h11.207l9.24-26.338h15.219l2.771-7.901h-41.264l-2.771,7.901h14.836L471.357,234.634z M347.146,255.423h32.094
	c0.715-0.183,1.149-0.402,1.302-0.659l2.164-5.048c-0.022-0.146-0.095-0.274-0.217-0.384c-0.123-0.11-0.254-0.202-0.393-0.275
	h-32.221l3.387-7.901h39.227c0.594,0,1.154,0.156,1.679,0.467s0.961,0.704,1.309,1.179c0.349,0.476,0.58,0.997,0.698,1.564
	s0.067,1.106-0.152,1.619l-4.658,10.864c-0.502,1.17-1.241,2.177-2.218,3.018c-0.976,0.841-2.077,1.527-3.302,2.057
	c-1.225,0.531-2.515,0.915-3.869,1.153s-2.668,0.357-3.941,0.357l9.453,11.961h-15.028l-10.472-11.961h-7.005l-5.129,11.961h-11.271
	L347.146,255.423z M401.57,247.302l-9.41,21.948c-0.471,1.097-0.627,2.03-0.468,2.798c0.158,0.769,0.546,1.399,1.162,1.893
	c0.616,0.494,1.382,0.859,2.299,1.097c0.918,0.238,1.928,0.357,3.031,0.357h29.038c1.02,0,2.092-0.128,3.221-0.384
	c1.129-0.256,2.221-0.649,3.277-1.18c1.055-0.53,2.012-1.179,2.873-1.947c0.859-0.769,1.5-1.646,1.924-2.634l9.41-21.948
	c0.424-0.988,0.535-1.866,0.334-2.634c-0.201-0.769-0.602-1.417-1.203-1.948c-0.6-0.531-1.354-0.924-2.264-1.18
	c-0.908-0.256-1.873-0.384-2.891-0.384h-29.039c-1.104,0-2.216,0.119-3.337,0.356c-1.12,0.238-2.201,0.604-3.24,1.098
	s-1.969,1.125-2.786,1.893C402.685,245.272,402.041,246.204,401.57,247.302L401.57,247.302z M428,267.495H404.12l7.904-18.437
	h23.879L428,267.495z M456.833,275.396h11.207l11.293-26.338h15.219l3.389-7.901h-41.264l-3.389,7.901h14.838L456.833,275.396z
	 M501.419,247.302l-9.412,21.948c-0.469,1.097-0.627,2.03-0.467,2.798c0.158,0.769,0.547,1.399,1.162,1.893
	c0.617,0.494,1.383,0.859,2.299,1.097c0.918,0.238,1.928,0.357,3.031,0.357h29.039c1.018,0,2.092-0.128,3.221-0.384
	c1.129-0.256,2.221-0.649,3.275-1.18c1.055-0.53,2.012-1.179,2.873-1.947c0.859-0.769,1.502-1.646,1.926-2.634l9.41-21.948
	c0.424-0.988,0.535-1.866,0.334-2.634c-0.201-0.769-0.604-1.417-1.203-1.948s-1.355-0.924-2.264-1.18
	c-0.91-0.256-1.873-0.384-2.893-0.384h-29.037c-1.105,0-2.217,0.119-3.338,0.356c-1.121,0.238-2.201,0.604-3.24,1.098
	s-1.969,1.125-2.785,1.893C502.533,245.272,501.89,246.204,501.419,247.302L501.419,247.302z M527.847,267.495h-23.879l7.904-18.437
	h23.881L527.847,267.495z M556.681,275.396h11.207l11.293-26.338H594.4l3.389-7.901h-41.264l-3.389,7.901h14.838L556.681,275.396z
	 M603.902,241.156h11.271l-14.682,34.24h-11.27L603.902,241.156z M615.169,255.423h34.068l1.301-0.659l2.164-5.048l-0.736-0.659
	h-34.068l3.389-7.901h40.691c0.635,0,1.217,0.156,1.74,0.467c0.525,0.311,0.951,0.704,1.277,1.179
	c0.328,0.476,0.549,0.997,0.668,1.564c0.117,0.567,0.066,1.106-0.152,1.619l-4.66,10.864c-0.5,1.17-1.135,2.177-1.898,3.018
	s-1.596,1.518-2.494,2.03c-0.898,0.512-1.834,0.887-2.807,1.125c-0.971,0.238-1.904,0.357-2.795,0.357h-27.828l-5.152,12.017
	h-11.271L615.169,255.423z M671.058,247.302l-9.41,21.948c-0.471,1.097-0.627,2.03-0.467,2.798c0.158,0.769,0.547,1.399,1.162,1.893
	c0.615,0.494,1.383,0.859,2.299,1.097c0.918,0.238,1.928,0.357,3.031,0.357h29.037c1.02,0,2.094-0.128,3.221-0.384
	c1.129-0.256,2.221-0.649,3.277-1.18c1.055-0.53,2.012-1.179,2.873-1.947c0.859-0.769,1.5-1.646,1.924-2.634l9.412-21.948
	c0.422-0.988,0.533-1.866,0.332-2.634c-0.201-0.769-0.602-1.417-1.201-1.948c-0.602-0.531-1.355-0.924-2.266-1.18
	c-0.908-0.256-1.873-0.384-2.891-0.384h-29.039c-1.104,0-2.215,0.119-3.336,0.356c-1.121,0.238-2.201,0.604-3.24,1.098
	s-1.969,1.125-2.785,1.893C672.173,245.272,671.529,246.204,671.058,247.302L671.058,247.302z M697.488,267.495h-23.879
	l7.904-18.437h23.881L697.488,267.495z"/>
</svg>
